<svg xmlns="http://www.w3.org/2000/svg" width="675" height="400">
  <g stroke="null" id="svgg">
   <path fill-rule="evenodd" fill="#02385e" d="m605.693542,243.208833c-26.249837,4.649241 -26.32333,31.900822 -0.119826,44.119857c14.866387,6.932322 17.833273,9.427893 17.833273,14.998994c0,9.860864 -15.024557,13.182435 -25.986221,5.74365l-5.660571,-3.842414l-4.14757,4.329705c-5.874659,6.131885 -5.35861,7.293397 5.694122,12.816567c22.509675,11.247648 45.351667,1.163109 45.048108,-19.887886c-0.190124,-13.153677 -4.930432,-18.125648 -24.987672,-26.2067c-12.30531,-4.95919 -15.185922,-10.036609 -9.132323,-16.090208c3.89993,-3.89993 15.225864,-4.342487 20.293696,-0.792448c3.620337,2.535514 10.062171,-2.706465 10.062171,-8.188096c0,-4.625276 -17.871618,-8.954981 -28.897188,-7.001022m-560.645718,40.745563l0,40.74077l7.189548,0l7.189548,0l0,-40.74077l0,-40.74077l-7.189548,0l-7.189548,0l0,40.74077m51.23751,-37.145996c-0.773276,1.977924 -8.303129,19.654626 -16.735669,39.282091c-17.900376,41.672216 -17.259707,38.604675 -8.052293,38.604675l7.27742,0l3.885551,-8.787225l3.887149,-8.787225l16.774013,0l16.774013,0l2.401309,5.99129c4.061296,10.135664 4.756285,10.757161 12.583306,11.271613c4.085261,0.266812 7.426004,0.065505 7.426004,-0.44735c0,-0.923457 -6.198988,-16.317078 -10.309811,-25.602778c-1.167902,-2.636167 -4.412785,-10.185192 -7.213513,-16.775611c-2.800728,-6.590419 -6.491363,-15.069292 -8.204073,-18.841408c-1.711112,-3.770518 -4.249821,-9.702694 -5.641398,-13.180837c-3.093103,-7.729563 -12.238208,-9.408721 -14.852008,-2.727235m50.135112,-1.565724c-0.428178,1.115179 -0.58475,19.269585 -0.349891,40.341351l0.429775,38.312301l24.763997,0l24.763997,0l0,-5.59187l0,-5.59187l-16.775611,-0.798839l-16.775611,-0.798839l0,-11.183741l0,-11.183741l11.982579,-0.798839l11.982579,-0.798839l0,-5.59187l0,-5.59187l-11.982579,-0.798839l-11.982579,-0.798839l0,-8.787225l0,-8.787225l16.376192,-0.455338l16.376192,-0.455338l0,-6.33479l0,-6.33479l-24.014687,0c-17.93872,0 -24.212799,0.512854 -24.794353,2.02905m82.360262,38.799592l0,40.828642l7.588967,-0.487292l7.588967,-0.487292l0.439361,-25.163417c0.242847,-13.840678 0.961802,-25.133061 1.597677,-25.094717c0.637473,0.038344 8.167326,8.485264 16.734072,18.772708c26.601326,31.945557 26.957608,32.297046 32.753981,32.290655l5.192451,-0.006391l0,-40.74077l0,-40.74077l-7.189548,0l-7.189548,0l0,25.562836c0,14.065951 -0.645462,25.562836 -1.436312,25.562836c-0.79085,0 -11.28759,-11.503276 -23.327686,-25.562836c-20.30488,-23.711128 -22.284402,-25.562836 -27.321879,-25.562836l-5.430505,0l0,40.828642m109.217217,-38.130165c-0.851562,2.4764 -5.192451,12.696741 -14.120272,33.249261c-1.145535,2.636167 -4.353671,10.185192 -7.128836,16.775611c-2.775165,6.590419 -6.448225,14.936685 -8.162533,18.549033c-4.570955,9.627603 -4.20988,10.4552 4.308936,9.897611c7.827021,-0.514452 8.52201,-1.135949 12.583306,-11.271613l2.401309,-5.99129l16.841116,0l16.842714,0l3.885551,8.787225c3.882356,8.779237 3.893539,8.787225 11.095869,8.787225c8.189694,0 8.40538,-0.532027 4.042123,-9.942346c-1.743066,-3.757737 -9.229781,-21.212361 -16.636613,-38.786811l-13.468419,-31.953545l-5.74365,-0.496878c-4.392015,-0.380247 -5.978508,0.185331 -6.7406,2.396516m50.922767,37.642874l0.42658,40.341351l6.790128,0.490487l6.790128,0.492085l0,-24.760802c0,-13.620199 0.61191,-25.141049 1.359623,-25.602778c0.747713,-0.461729 11.188534,10.638933 23.203067,24.669734c20.437487,23.869298 22.199725,25.510113 27.398567,25.510113l5.555124,0l0,-40.828642l0,-40.828642l-7.588967,0.487292l-7.588967,0.487292l0.146986,25.232117c0.108642,18.40684 -0.353087,25.1059 -1.704722,24.763997c-1.57531,-0.397822 -15.777063,-16.400157 -39.183035,-44.150213c-4.447933,-5.273933 -6.659119,-6.630361 -10.811482,-6.636751l-5.219612,-0.007988l0.42658,40.341351m77.913927,-34.02733l0,6.315618l9.985483,0.47451l9.985483,0.476108l0.798839,33.551222l0.798839,33.551222l7.189548,0l7.189548,0l0.431373,-33.950642l0.431373,-33.950642l10.352949,0l10.352949,0l0,-6.390709l0,-6.390709l-28.758191,0l-28.758191,0l0,6.314021m64.279349,34.02733l0.42658,40.341351l24.17765,0.439361l24.17765,0.440959l0.795643,-5.233991c1.14873,-7.557013 0.985767,-7.628909 -17.160651,-7.628909l-16.550339,0l-0.530429,-11.324336c-0.643864,-13.74322 -1.805375,-12.640822 13.31664,-12.640822l12.514606,0l0,-6.390709l0,-6.390709l-11.58316,-0.023965c-14.454186,-0.030356 -15.535814,-0.718955 -15.115624,-9.618017c0.436166,-9.236172 0.894699,-9.477421 18.136832,-9.50618l14.60277,-0.023965l0.658243,-5.641398c0.88032,-7.539439 2.257518,-7.14002 -24.567483,-7.14002l-23.725507,0l0.42658,40.341351m-422.135088,-1.958752l4.586931,10.346558l-9.680326,0.480901c-12.113589,0.600727 -11.754112,1.230211 -6.523316,-11.394634c5.265944,-12.709523 5.742052,-12.685557 11.616711,0.567175m241.292402,-0.688599c2.599421,5.793178 4.725929,10.825861 4.725929,11.183741c0,0.35788 -4.662022,0.650255 -10.360937,0.650255l-10.362535,0l3.241687,-8.221647c6.783738,-17.213375 6.668705,-17.179824 12.755855,-3.612348m-298.099415,63.066712c-0.579957,0.936239 -0.669427,2.086566 -0.201307,2.556284c1.145535,1.143937 4.261005,-0.872332 4.261005,-2.757591c0,-2.041832 -2.757591,-1.906029 -4.059698,0.201307m-6.788531,20.173871l0.463326,14.069146l7.05694,0c8.939004,0 10.800298,-3.585188 2.22876,-4.291361c-7.691218,-0.634278 -9.047646,-6.552074 -1.696733,-7.397246c5.593468,-0.643864 5.943359,-5.087004 0.399419,-5.087004c-6.504144,0 -5.419321,-6.050404 1.198258,-6.689475c7.887733,-0.760494 6.200585,-3.63152 -2.460423,-4.184317l-7.652874,-0.490487l0.463326,14.070744m29.221517,-11.960212c-11.079892,6.353962 -9.007704,23.108804 3.240089,26.182735c5.229198,1.313291 11.845179,-0.450545 13.001897,-3.465362c1.254177,-3.26725 -0.667829,-4.912858 -3.008426,-2.57226c-5.170084,5.170084 -15.630077,0.335512 -15.630077,-7.224697c0,-6.914747 4.82179,-10.707633 11.918672,-9.37517c6.198988,1.161511 7.700804,-1.073639 2.56587,-3.821644c-3.96863,-2.123313 -8.066672,-2.030648 -12.088026,0.276398m31.154706,0.1374c-8.83196,4.467106 -9.955127,17.2645 -2.057808,23.47627c5.92259,4.658827 12.576915,4.125203 18.157602,-1.455484c11.527241,-11.527241 -1.532172,-29.389273 -16.099794,-22.020786m29.0953,11.522448c0.52244,15.392023 3.251273,18.825431 4.455922,5.607847l0.798839,-8.761662l7.894123,9.161081c10.23472,11.87873 10.479165,11.754112 10.479165,-5.350621c0,-15.761086 -3.532464,-20.279317 -4.481485,-5.734064c-0.610313,9.360791 -1.445898,9.316056 -9.742636,-0.524038c-9.135519,-10.833849 -9.945541,-10.351351 -9.403928,5.601456m40.175192,-12.004947c-13.535522,5.462459 -8.886281,27.173295 5.820338,27.173295c6.873208,0 14.379095,-7.505888 14.379095,-14.379095c0,-9.836899 -10.714024,-16.622234 -20.199434,-12.794199m28.18782,12.926807c0,14.885559 3.385478,20.413522 4.489473,7.333339c0.581555,-6.879598 2.136094,-7.386062 5.748443,-1.874075c3.387076,5.168486 4.299349,5.032683 8.076259,-1.207844l3.137838,-5.182865l0.856355,7.064929c1.658389,13.660141 4.852146,9.62281 4.852146,-6.133483c0,-16.627027 -1.223821,-17.692678 -7.496302,-6.524914c-5.505596,9.80175 -5.387368,9.80175 -11.675825,0.001598c-7.036171,-10.964859 -7.988386,-10.188388 -7.988386,6.523316m37.420797,-12.364424c-1.64401,4.281775 0.076689,25.540469 2.121715,26.216286c1.500219,0.496878 1.997097,-2.954105 1.997097,-13.851862c0,-13.311847 -1.746261,-18.550631 -4.118812,-12.364424m15.638065,11.742928l0.463326,14.069146l7.05694,0c8.939004,0 10.800298,-3.585188 2.22876,-4.291361c-7.691218,-0.634278 -9.047646,-6.552074 -1.696733,-7.397246c2.415688,-0.277996 4.393612,-1.489035 4.393612,-2.690488c0,-1.201453 -1.977924,-2.412493 -4.393612,-2.690488c-6.30763,-0.725345 -5.689329,-5.101383 0.861148,-6.096736c7.962823,-1.209442 6.916345,-3.930286 -1.723894,-4.483082l-7.652874,-0.490487l0.463326,14.070744m39.925955,-11.972993c-1.054467,1.054467 -1.917213,4.246626 -1.917213,7.095285c0,2.848659 -0.718955,5.622226 -1.597677,6.165437c-7.451567,4.604506 1.886857,13.380547 13.979676,13.1377c7.855779,-0.156572 10.306616,-1.378795 6.941908,-3.457374c-0.794046,-0.492085 -1.05926,-3.768921 -0.587945,-7.283811c0.931446,-6.945103 -1.882064,-9.041256 -4.096444,-3.054759c-1.124765,3.04038 -1.425128,3.105885 -3.395064,0.731736c-1.637619,-1.973131 -1.71271,-3.054759 -0.313145,-4.454324c2.538709,-2.538709 2.31823,-5.307484 -0.659841,-8.287152c-3.002036,-3.002036 -5.75004,-3.196952 -8.354254,-0.592738m39.622396,12.59449c0,14.885559 3.385478,20.413522 4.489473,7.333339c0.578359,-6.842852 2.246334,-7.491509 4.805813,-1.874075c2.406102,5.278726 4.12041,5.039074 8.569941,-1.198258l3.703416,-5.192451l0.798839,7.189548c1.303705,11.730146 3.959044,7.449969 4.455922,-7.179962c0.541613,-15.965589 -0.822804,-16.944965 -7.803056,-5.601456c-6.013657,9.772992 -5.940164,9.772992 -11.7621,-0.031954c-6.462604,-10.886573 -7.258248,-10.167618 -7.258248,6.55527m41.576355,-4.20988c-2.672914,5.959336 -5.291507,12.551352 -5.817143,14.645907c-1.172695,4.671608 1.779812,5.106177 4.182719,0.615106c2.116922,-3.957447 14.379095,-4.717941 14.379095,-0.893102c0,2.754396 2.612202,4.638057 4.670011,3.366306c1.514598,-0.936239 -7.617725,-23.63444 -10.784321,-26.801036c-1.292521,-1.292521 -3.075529,1.145535 -6.630361,9.066818m26.392031,-8.553964c-1.794192,4.495864 -0.242847,25.898348 1.929994,26.615705c1.421933,0.471315 1.997097,-1.675963 1.997097,-7.461153c0,-10.555854 2.567467,-10.587807 10.541475,-0.132607c8.13697,10.669289 8.630653,10.303421 8.630653,-6.390709c0,-7.908502 -0.642266,-14.379095 -1.426726,-14.379095c-2.128106,0 -3.366306,4.25781 -3.366306,11.573574l0,6.518523l-8.645032,-9.445468c-6.702256,-7.322155 -8.873499,-8.873499 -9.661154,-6.89877m39.978678,5.015109c-1.610459,3.749749 -4.221063,9.693108 -5.799568,13.207998c-2.00189,4.45752 -2.359769,6.873208 -1.183879,7.988386c1.134351,1.073639 1.929994,0.933044 2.428469,-0.428178c2.52433,-6.890782 12.936393,-8.470885 15.6141,-2.367758c1.501817,3.420627 5.61264,5.079016 5.61264,2.263909c0,-2.549893 -10.979238,-26.559787 -12.354838,-27.01832c-0.762092,-0.254031 -2.704868,2.605812 -4.316924,6.353962m26.134805,-2.092957c-11.877133,11.877133 3.636313,31.201039 17.341189,21.600596c6.491363,-4.545392 5.064637,-15.086866 -2.040234,-15.086866c-3.904723,0 -5.59187,0.72215 -5.59187,2.396516c0,1.358026 1.433116,2.396516 3.307192,2.396516c2.514744,0 3.184171,0.861148 2.795935,3.594774c-0.752506,5.2963 -9.640385,5.927383 -13.139298,0.933044c-6.032829,-8.613078 0.164561,-17.056802 11.023973,-15.019764c6.636751,1.246188 7.71039,-1.565724 1.500219,-3.927091c-6.705451,-2.548295 -10.265076,-1.819754 -15.197106,3.112275m31.188258,-2.615398c-0.472912,1.230211 -0.645462,7.563404 -0.38504,14.072341l0.47451,11.832398l7.588967,0.487292c6.008864,0.38504 7.588967,-0.030356 7.588967,-1.997097c0,-1.773422 -1.599275,-2.484388 -5.59187,-2.484388c-4.900076,0 -5.59187,-0.49528 -5.59187,-3.994193c0,-3.195355 0.798839,-3.994193 3.994193,-3.994193c2.485986,0 3.994193,-0.905883 3.994193,-2.396516c0,-1.490633 -1.508207,-2.396516 -3.994193,-2.396516c-6.504144,0 -5.419321,-6.050404 1.198258,-6.689475c7.496302,-0.72215 6.385916,-3.609153 -1.612056,-4.187512c-4.717941,-0.340305 -7.068124,0.194917 -7.664058,1.747859m24.853467,12.324482c0,14.949466 2.652144,20.101975 3.506902,6.814093c0.51605,-7.99957 0.825999,-7.983593 6.921138,0.375454c2.271897,3.117068 2.446044,3.057954 7.092089,-2.396516l4.761078,-5.59187l0.043137,7.721574c0.075091,13.549901 3.967033,8.285554 4.508645,-6.099932c0.610313,-16.211631 -1.262165,-17.997834 -7.817435,-7.453164c-5.74365,9.240965 -6.94031,9.097174 -12.933197,-1.565724c-5.102981,-9.0796 -6.082357,-7.759918 -6.082357,8.196084m36.746577,0l0,14.379095l7.988386,0c6.036025,0 7.988386,-0.586348 7.988386,-2.396516c0,-1.674366 -1.687147,-2.396516 -5.59187,-2.396516c-4.900076,0 -5.59187,-0.49528 -5.59187,-3.994193c0,-3.195355 0.798839,-3.994193 3.994193,-3.994193c2.485986,0 3.994193,-0.905883 3.994193,-2.396516c0,-1.490633 -1.508207,-2.396516 -3.994193,-2.396516c-2.928542,0 -3.994193,-0.851562 -3.994193,-3.195355c0,-2.586639 1.065651,-3.195355 5.59187,-3.195355c3.904723,0 5.59187,-0.72215 5.59187,-2.396516c0,-1.810168 -1.952362,-2.396516 -7.988386,-2.396516l-7.988386,0l0,14.379095m25.184187,-12.281345c-2.035441,5.99768 -0.308352,25.839234 2.292667,26.340905c2.25592,0.434568 2.794338,-1.024111 3.195355,-8.649825l0.482499,-9.173863l7.189548,8.99013c3.954251,4.944811 7.908502,8.787225 8.787225,8.539585c2.441251,-0.690197 2.062601,-26.924057 -0.399419,-27.745263c-1.43791,-0.479303 -1.997097,1.818157 -1.997097,8.204073c0,10.547865 -1.489035,10.583014 -9.616419,0.233261c-6.066381,-7.723172 -8.939004,-9.672338 -9.934357,-6.739003m32.332195,0.218882c0,1.393175 1.367612,2.4764 3.125057,2.4764c2.768775,0 3.179378,1.310095 3.594774,11.455346c0.67422,16.451283 4.46391,17.10633 4.46391,0.771678c0,-10.849826 0.313145,-12.054475 3.259262,-12.514606c6.553672,-1.027306 2.926945,-3.719393 -5.636605,-4.185914c-7.095285,-0.386638 -8.806397,0.001598 -8.806397,1.997097m-501.397455,5.120556c6.19739,5.607847 1.76064,16.527971 -6.716635,16.527971c-4.940018,0 -7.210317,-2.142485 -8.744088,-8.258394c-2.088164,-8.31591 8.910246,-14.198558 15.460723,-8.269577m68.700122,0c5.948152,5.382575 1.826145,16.527971 -6.112713,16.527971c-8.740892,0 -13.434868,-11.888316 -6.585626,-16.684544c4.585334,-3.212929 9.036463,-3.15701 12.698339,0.156572m197.838777,6.941908c0,1.775019 -1.065651,3.195355 -2.396516,3.195355c-2.431665,0 -3.276836,-3.379087 -1.330865,-5.325058c2.024257,-2.025855 3.727381,-1.052869 3.727381,2.129704m65.221978,0.532027c0.348294,1.795789 -0.562382,2.663328 -2.795935,2.663328c-3.650693,0 -3.756139,-0.17894 -2.316632,-3.930286c1.21743,-3.171389 4.406394,-2.380539 5.112567,1.266958m-148.620731,2.982863c2.910968,2.910968 2.294265,6.071174 -1.183879,6.071174c-3.676255,0 -5.518377,-2.439653 -4.280177,-5.668559c1.083225,-2.821498 2.910968,-2.955703 5.464056,-0.402615" id="path0"/>
  </g>
  <g>
    <circle cx="306" cy="190" r="15" stroke="none" fill="#02385e" />
    <circle cx="326" cy="156" r="12" stroke="none" fill="#02385e" />
    <circle cx="389" cy="177" r="10" stroke="none" fill="#02385e" />
    <circle cx="335" cy="112" r="13" stroke="none" fill="#02385e" />
    <circle cx="301" cy="83" r="15" stroke="none" fill="#02385e" />
    <circle cx="281" cy="48" r="15" stroke="none" fill="#02385e" />
    <circle cx="253" cy="126" r="15" stroke="none" fill="#02385e" />
    <circle cx="364" cy="34" r="15" stroke="none" fill="#02385e" />
    <circle cx="377" cy="97" r="15" stroke="none" fill="#02385e" />
    <circle cx="417" cy="98" r="13" stroke="none" fill="#02385e" />
  </g>
  <g>
    <circle cx="350" cy="194" r="7" stroke="none" fill="#d6d300" />
    <circle cx="271" cy="166" r="14" stroke="none" fill="#d6d300" />
    <circle cx="294" cy="127" r="14" stroke="none" fill="#d6d300" />
    <circle cx="368" cy="142" r="12" stroke="none" fill="#d6d300" />
    <circle cx="413" cy="141" r="10" stroke="none" fill="#d6d300" />
    <circle cx="257" cy="84" r="14" stroke="none" fill="#d6d300" />
    <circle cx="344" cy="70" r="14" stroke="none" fill="#d6d300" />
    <circle cx="321" cy="30" r="14" stroke="none" fill="#d6d300" />
    <circle cx="399" cy="59" r="14" stroke="none" fill="#d6d300" />
  </g>
</svg>